Coordinates
version=1
nRows=14
nColumns=36
inDegrees=yes

Units are S.I. units (second, meters, Newtons, ...)
If the header above contains a line with 'inDegrees', this indicates whether rotational values are in degrees (yes) or radians (no).

endheader
time	pelvis_tilt	pelvis_list	pelvis_rotation	pelvis_tx	pelvis_ty	pelvis_tz	hip_flexion_r	hip_adduction_r	hip_rotation_r	knee_angle_r	knee_angle_r_beta	ankle_angle_r	subtalar_angle_r	mtp_angle_r	hip_flexion_l	hip_adduction_l	hip_rotation_l	knee_angle_l	knee_angle_l_beta	ankle_angle_l	subtalar_angle_l	mtp_angle_l	lumbar_extension	lumbar_bending	lumbar_rotation	arm_flex_r	arm_add_r	arm_rot_r	elbow_flex_r	pro_sup_r	arm_flex_l	arm_add_l	arm_rot_l	elbow_flex_l	pro_sup_l
      1.01000000	     -0.16996908	      2.05050277	      0.79383100	      1.12007882	      0.94617463	     -0.26354460	     25.73871227	     -3.57475933	      8.45622539	      6.13158440	      0.10701634	      5.12461763	      6.27728994	     -7.20571668	    -11.92876042	      3.98924959	     12.57948421	      4.18899844	      0.07311182	     16.68253734	      7.93237960	     -7.20571668	     -7.88082836	     -3.04985176	     -7.71941324	    -15.73576137	     -2.07305663	    -10.58133221	     33.97261944	    111.77104564	     10.85794953	    -10.52650196	     -0.75147585	     46.36330839	    110.22434439
      1.02000000	     -0.23454302	      2.20059015	      0.92208006	      1.13211229	      0.94334719	     -0.26239220	     25.82376605	     -3.75189576	      9.25935175	      4.29197541	      0.07490910	      5.34680407	      7.81102130	     -7.20865385	    -12.68123493	      4.01573140	     12.73183731	      4.26042503	      0.07435844	     17.23201069	      8.00818084	     -7.20865385	     -7.84359112	     -3.25780431	     -7.77636997	    -15.75557360	     -1.94733294	    -10.60593003	     33.69308394	    111.76706378	     11.09741811	    -10.56536682	     -0.54693035	     47.03216255	    110.27622119
      1.03000000	     -0.04965389	      2.27939739	      1.06684383	      1.14447687	      0.94093867	     -0.26126037	     25.76646939	     -3.86201952	      9.10853368	      3.10848596	      0.05425331	      6.13905738	     10.16922933	     -7.21797325	    -13.73817216	      3.92948427	     12.55688234	      4.25997970	      0.07435067	     17.80686562	      8.62785373	     -7.21797325	     -8.09924254	     -3.36383968	     -8.01650434	    -15.59181648	     -1.89878059	    -10.60438865	     33.21298964	    111.79879585	     11.06947278	    -10.73861280	     -0.37055477	     48.09588575	    110.28288991
      1.04000000	     -0.11341520	      2.38665880	      1.22364479	      1.15687423	      0.93823628	     -0.26000963	     25.97069562	     -3.93560921	      9.42922322	      2.28767366	      0.03992744	      6.48927615	     10.87907897	     -7.21974116	    -14.45226856	      3.88523319	     12.53095223	      4.40059726	      0.07680491	     18.17466991	      8.70643765	     -7.21974116	     -8.01534190	     -3.51686538	     -8.03090490	    -15.65534014	     -1.77601462	    -10.59682704	     33.00182779	    111.80100120	     11.20622905	    -10.64690239	     -0.29405418	     48.53027064	    110.30839321
      1.05000000	     -0.17263562	      2.42938461	      1.32654238	      1.16935618	      0.93564213	     -0.25872148	     26.32670168	     -3.87636486	      9.50670947	      2.17023352	      0.03787772	      6.55190941	     10.97449502	     -7.21996709	    -15.15517749	      3.78648041	     12.50002956	      4.56952185	      0.07975320	     18.20993053	      8.72592923	     -7.21996709	     -7.92215229	     -3.56267956	     -8.14418040	    -15.66519194	     -1.73303891	    -10.59798657	     32.96145890	    111.80028411	     11.31897104	    -10.59180683	     -0.26303407	     48.64233609	    110.31800194
      1.06000000	      0.19306521	      2.33309619	      1.40294844	      1.18227967	      0.93371284	     -0.25735345	     25.88495564	     -3.70022940	      9.93997158	      1.89591727	      0.03309000	      7.45046680	     11.76633487	     -7.22235426	    -16.31261813	      3.52277883	     12.32236209	      4.84906453	      0.08463214	     18.81166066	      9.00886064	     -7.22235426	     -8.37537537	     -3.44222807	     -8.07856408	    -15.51798273	     -1.68309498	    -10.72049251	     32.48306940	    111.78305266	     11.25395765	    -10.53429073	     -0.09604233	     49.56674857	    110.38370119
      1.07000000	      0.38318930	      2.23492887	      1.52508458	      1.19559996	      0.93169391	     -0.25602228	     25.81620545	     -3.50319083	      9.37070999	      2.33306971	      0.04071975	      8.12012716	     12.63015697	     -7.23387475	    -17.18915741	      3.22170343	     11.46401199	      5.23842838	      0.09142782	     19.31284504	     10.61029778	     -7.23387475	     -8.52821754	     -3.31492319	     -8.54600875	    -15.25878644	     -1.68702552	    -10.81234330	     32.16273865	    111.86792261	     10.62303909	    -10.51550460	     -0.70241212	     50.63026176	    110.27796607
      1.08000000	      0.52014657	      2.10906662	      1.59733626	      1.20907838	      0.92969676	     -0.25469967	     25.70753411	     -3.23422555	      9.32231179	      2.93081378	      0.05115235	      8.30423024	     12.03408251	     -7.23663023	    -18.00863592	      2.97257010	     11.20384820	      5.68780144	      0.09927086	     19.28732833	     10.58142428	     -7.23663023	     -8.57116705	     -3.10206560	     -8.51595067	    -15.30942432	     -1.73072284	    -10.81026408	     32.02729439	    111.88315056	     10.48289889	    -10.28362908	     -0.77031294	     50.77683589	    110.26411346
      1.09000000	      0.65319634	      1.93823131	      1.66442428	      1.22277698	      0.92786494	     -0.25330346	     25.56073289	     -2.89851714	      9.29465677	      3.75422946	      0.06552366	      8.17044758	     11.13332416	     -7.23959007	    -18.76244113	      2.67560063	     10.90041188	      6.24795495	      0.10904739	     19.11280072	     10.60332900	     -7.23959007	     -8.59113025	     -2.85491936	     -8.48849751	    -15.32027691	     -1.81614064	    -10.87636259	     31.90868126	    111.89182355	     10.17735711	    -10.04294666	     -0.91583755	     50.93555694	    110.24239040
      1.10000000	      0.65904619	      1.73331682	      1.67576767	      1.23670312	      0.92599408	     -0.25168057	     25.40668472	     -2.46298470	      9.86312516	      4.50298511	      0.07859192	      7.07862880	      8.94209293	     -7.25053861	    -19.25750181	      2.35642696	     10.36889504	      7.04930949	      0.12303366	     18.98076427	     10.96470467	     -7.25053861	     -8.41419100	     -2.56530613	     -8.60414428	    -15.27002853	     -1.90418033	    -10.99356005	     31.75507397	    111.95195544	      9.57220475	     -9.72531520	     -1.63195335	     51.26467038	    110.14855566
      1.11000000	      0.76545996	      1.50541986	      1.69895710	      1.25088897	      0.92448567	     -0.25022401	     25.24320174	     -2.03824356	      9.49170202	      5.59615048	      0.09767125	      6.31101879	      8.33129091	     -7.25276834	    -19.85068022	      2.03900328	     10.04639189	      7.86197136	      0.13721729	     18.47410473	     10.79889199	     -7.25276834	     -8.33883661	     -2.20821920	     -8.51248486	    -15.34013056	     -2.04689585	    -11.01012658	     31.65121948	    111.95848743	      9.17376117	     -9.42783747	     -1.70740514	     51.17561930	    110.12692181
      1.12000000	      0.71635985	      1.25798388	      1.71776100	      1.26532533	      0.92304399	     -0.24866678	     25.20482911	     -1.57386402	      9.09485297	      6.68854701	      0.11673717	      4.92650848	      7.52996905	     -7.25582679	    -20.13214477	      1.70641945	      9.61329296	      8.91856732	      0.15565836	     17.79168316	     10.61388782	     -7.25582679	     -8.02348836	     -1.81873124	     -8.43563046	    -15.43720938	     -2.21687113	    -11.04283199	     31.54036716	    111.96399502	      8.63701944	     -9.09095914	     -1.99361376	     50.96157608	    110.06928475
      1.13000000	      0.56007054	      0.97431990	      1.68148734	      1.27985874	      0.92177849	     -0.24695717	     25.21152562	     -1.02282727	      8.87773644	      7.67014150	      0.13386922	      3.10567920	      6.56779734	     -7.26099089	    -20.15398012	      1.35164255	      9.11518356	     10.21150080	      0.17822431	     17.03750067	     10.53087743	     -7.26099089	     -7.56158750	     -1.39579859	     -8.38624755	    -15.45316759	     -2.39234067	    -11.02403486	     31.37776731	    111.97322496	      7.95906670	     -8.64988863	     -2.50809274	     50.62319075	    109.97916445
      1.14000000	      0.50703270	      0.63441903	      1.61583401	      1.29455923	      0.92097397	     -0.24516864	     25.13657506	     -0.39692111	      8.34772034	      8.76216328	      0.15292860	      1.56114124	      6.25093928	     -7.26385949	    -20.15254384	      0.92876453	      8.45199346	     11.71116939	      0.20439847	     15.94375487	     10.38208107	     -7.26385949	     -7.21880419	     -0.89400479	     -8.24833535	    -15.46086391	     -2.60595478	    -10.99740284	     31.23577787	    111.97085442	      7.30984360	     -8.25655159	     -2.82032146	     50.19890810	    109.91049226
